<svg xmlns="http://www.w3.org/2000/svg" viewBox="0 0 61.05 10.7"><defs><style>.cls-1{fill:#6f0e37;}.cls-1,.cls-2,.cls-3{fill-rule:evenodd;}.cls-2{fill:#fff;}.cls-3{fill:#fdfefc;}</style></defs><title>circutor-logo</title><g id="Capa_2" data-name="Capa 2"><g id="Capa_1-2" data-name="Capa 1"><path class="cls-1" d="M11.4,2.26a2.15,2.15,0,0,0-.27-1.09,2.12,2.12,0,0,0-.66-.73A3.74,3.74,0,0,0,8.12,0L4,0A2.33,2.33,0,0,0,2.86.23,2.18,2.18,0,0,0,1.67,1.81c-.2.72-.39,1.44-.59,2.17C.93,4.53.6,5.66.49,6.15L.2,7.24A3.48,3.48,0,0,0,0,8.42a2.41,2.41,0,0,0,1,1.8,3.3,3.3,0,0,0,2.3.47c.91,0,1.83,0,2.75,0H7.41a2.36,2.36,0,0,0,1.5-.56,2.33,2.33,0,0,0,.77-1.31L10,7.74c.1-.36.18-.72.29-1.08.3-1,.58-2.21.88-3.26a5.52,5.52,0,0,0,.25-1.14Z"/><path class="cls-1" d="M24,3.5c.15,0,2.05,0,2.36,0s.44,0,.56.21,0,.45-.06.64L26.5,5.6c-.06.22-.11.39-.33.45s-2.1,0-2.37,0-.46,0-.57-.2a1,1,0,0,1,.06-.65L23.63,4c.06-.24.1-.4.35-.45Zm2.17,3.37c.16,0,.39,0,.57,0a1.16,1.16,0,0,0,.93-.89c.17-.63.35-1.26.52-1.9a1.18,1.18,0,0,0-.86-1.48c-.24-.07-2-.06-2.34-.07s-.81,0-1.22,0a1.22,1.22,0,0,0-.89.33,1.65,1.65,0,0,0-.39.83l-1,3.81a6.14,6.14,0,0,0-.22,1,9.76,9.76,0,0,0,1.21,0c0-.08.38-1.38.43-1.57h2c.07,0,.09.08.12.14l.75,1.35c0,.08,0,0,.06.08s1,0,1.21,0a10.92,10.92,0,0,0-.63-1.19c-.05-.1-.21-.34-.17-.4Z"/><path class="cls-1" d="M59.78,4a4.85,4.85,0,0,1-.16.63l-.34,1.23a.43.43,0,0,1-.19.21.78.78,0,0,1-.34,0c-.49,0-1.94,0-2.36,0a.38.38,0,0,1-.34-.45l.5-1.87c.08-.21.28-.23.54-.23s2.1,0,2.36,0a.37.37,0,0,1,.33.44ZM59,6.9a1.57,1.57,0,0,0,1.21-.33l.14-.16A1.25,1.25,0,0,0,60.49,6L61,4.08a1.17,1.17,0,0,0-.83-1.49c-.32-.08-3.06,0-3.6,0a1.16,1.16,0,0,0-.86.34,1.6,1.6,0,0,0-.38.84c-.17.59-.35,1.34-.52,1.9-.05.16-.08.32-.13.48L54.17,8a2.92,2.92,0,0,0-.12.49h1.22c.13-.31.35-1.4.44-1.57a18.58,18.58,0,0,1,2,0c.16.23.3.53.44.78l.44.76a8.05,8.05,0,0,0,1.21,0c0-.16-.81-1.43-.83-1.59Z"/><path class="cls-1" d="M50.22,3.58c.14,0,1.64,0,1.9,0a1,1,0,0,1,.44,0,.37.37,0,0,1,.21.28c0,.18-.53,2.05-.59,2.27s-.14.51-.21.77-.09.53-.36.6-1.64,0-1.91,0-.6,0-.65-.32a2.81,2.81,0,0,1,.17-.78c.14-.51.28-1,.41-1.52l.21-.77c.08-.3.07-.51.38-.58Zm3.89,0a1,1,0,0,0-.57-1,4.67,4.67,0,0,0-1.42-.1c-.72,0-1.61,0-2.32,0s-.94.55-1.11,1.21-.94,3.38-1,3.66a1,1,0,0,0,.56,1,4.78,4.78,0,0,0,1.44.1h1.56a2.4,2.4,0,0,0,1.34-.19c.36-.27.36-.53.51-1,.08-.28.95-3.43,1-3.67Z"/><path class="cls-1" d="M35.81,2.57c-.05.08-.51,1.85-.58,2.12-.2.68-.4,1.4-.58,2.1a1.63,1.63,0,0,0-.07,1.11,1,1,0,0,0,.78.57c.4,0,2.11,0,2.64,0s.94,0,1.35,0a.94.94,0,0,0,.77-.57c.1-.23,1.06-3.9,1.15-4.22l.29-1.07c0-.07,0-.06-.07-.07H41c-.71,0-.63-.06-.7.22-.11.43-.27.91-.37,1.34s-.27,1-.41,1.53-.28,1-.42,1.55c-.1.35-.27.34-.65.34l-2,0c-.33,0-.6,0-.66-.32a12.72,12.72,0,0,1,.38-1.54c.13-.51.27-1,.42-1.55L37,2.56Z"/><path class="cls-1" d="M18.8,3.44l.25-1c-.29,0-.75,0-1,0h-2.1c-.65,0-1.31-.09-1.75.35a1.53,1.53,0,0,0-.34.7c-.15.55-.31,1.1-.45,1.64s-.3,1.1-.45,1.65a1.22,1.22,0,0,0,.56,1.42,1.5,1.5,0,0,0,.89.16h3.09l.25-.94c-.53,0-1.05,0-1.56,0s-1,0-1.56,0c-.75,0-.57-.45-.46-.87l.67-2.46c.17-.65.22-.62.9-.62,1,0,2.08,0,3.1,0Z"/><path class="cls-1" d="M34.28,3.53a6.58,6.58,0,0,0,.25-1c-.29,0-.72,0-1,0H31.4c-.32,0-.71,0-1,0a1.32,1.32,0,0,0-.71.34,1.49,1.49,0,0,0-.35.7l-.89,3.29A1.23,1.23,0,0,0,29,8.3a1.6,1.6,0,0,0,.89.15c.5,0,2.75.05,3.08,0a8,8,0,0,0,.25-.93c-.93,0-2.07,0-3,0-.27,0-.48,0-.58-.21s0-.41.05-.61l.68-2.46c.19-.68.11-.66.88-.67h2.35a4.77,4.77,0,0,0,.76,0Z"/><path class="cls-1" d="M45.86,3.58a3.82,3.82,0,0,1,.68,0h.67c.34,0,.31,0,.39-.31s.24-.67-.13-.67H43.72c-1,0-.88-.08-1,.37-.18.64-.16.62.55.62.27,0,1.17,0,1.35,0a6.48,6.48,0,0,1-.16.63L43.31,8.45c0,.05,0,0,0,.06a9.54,9.54,0,0,0,1.2,0l1.34-4.94Z"/><polygon class="cls-1" points="19.93 8.41 20.14 7.66 20.34 6.93 21.34 3.22 21.53 2.47 20.32 2.48 19.91 3.96 18.73 8.4 19.93 8.41 19.93 8.41"/><path class="cls-2" d="M9.06,2a5.75,5.75,0,0,0,.21-.74l-1.37,0c-.89,0-2,0-2.81,0-.24,0-.48,0-.72,0-.6,0-1.15,0-1.51.59-.18.3-.8,2.82-.93,3.27-.21.74-.41,1.47-.6,2.21s-.52,1.44.31,2a2.09,2.09,0,0,0,1.21.19c.47,0,.93,0,1.39,0s2.41,0,2.79,0l.19-.77a4,4,0,0,1-.6,0c-.74,0-3.83,0-4.09-.07A.81.81,0,0,1,2,8a3.84,3.84,0,0,1,.22-1c.09-.29.16-.62.25-.93l.75-2.8a5,5,0,0,1,.29-.9A.81.81,0,0,1,4.33,2C5.11,2,5.92,2,6.7,2c.37,0,2.15,0,2.36,0Z"/><path class="cls-2" d="M7.33,8.31a4.44,4.44,0,0,0,.22-.78c-1.15,0-2.29,0-3.44,0-.35,0-.66.06-.71-.15a3.32,3.32,0,0,1,.17-.71c.26-.89.47-1.81.74-2.73.2-.72.11-.78,1-.76s1.74,0,2.59,0l.85,0L9,2.4c-.16,0-.38,0-.54,0s-.36,0-.54,0c-.47,0-3.53-.07-3.73,0-.4.16-.42.55-.56,1.07S2.45,7.58,2.44,7.76c0,.35.25.52.56.53H6.25c.35,0,.73,0,1.08,0Z"/><path class="cls-3" d="M9.3,2.38a6.2,6.2,0,0,0,1,0A1.34,1.34,0,0,0,10.35,2l-1,0a.91.91,0,0,0-.07.38Z"/><path class="cls-3" d="M7.59,8.69a3.91,3.91,0,0,0,.7,0c.25,0,.25,0,.28-.07a2.38,2.38,0,0,0,.07-.31h-1l-.06.19s0,.07,0,.1,0,0,0,0,0,0,0,0Z"/></g></g></svg>