<svg xmlns="http://www.w3.org/2000/svg" viewBox="0 0 226.77 35.31"><defs><style>.cls-1{fill:#ba007c;}.cls-2{fill:#211915;}</style></defs><title>prismian-logo</title><g id="Capa_2" data-name="Capa 2"><g id="Livello_1" data-name="Livello 1"><path class="cls-1" d="M54.4,25.76c-.33,0-.54,0-.9,0-1.92,0-2.37-.9-2.37-2.67,0-2.29.77-2.75,2.37-2.75.36,0,.57,0,.9,0s.5.15.5.36V21c0,.35-.08.46-.39.46s-.56,0-.85,0a2.93,2.93,0,0,0-.83.09c-.44.19-.43.78-.43,1.6s0,1.45.67,1.57a3.16,3.16,0,0,0,.59,0c.29,0,.56,0,.85,0s.39.11.39.46v.25c0,.21-.09.33-.5.36"/><path class="cls-1" d="M58.92,22.05l-.61,1.75h1.22l-.61-1.75M61,25.7h-.44a.43.43,0,0,1-.45-.33l-.24-.64H58l-.21.59c-.08.22-.16.38-.49.38h-.36c-.36,0-.4-.12-.4-.28a1,1,0,0,1,.07-.26l1.62-4.36a.5.5,0,0,1,.55-.4h.32a.52.52,0,0,1,.56.39l1.71,4.44a.8.8,0,0,1,0,.15A.33.33,0,0,1,61,25.7Z"/><path class="cls-1" d="M65.62,23.63a3.28,3.28,0,0,0-.7-.05h-.38v1.09H65a3.48,3.48,0,0,0,.53,0c.18,0,.3-.16.3-.55s-.09-.43-.23-.46m-.06-2.05c-.08-.15-.17-.13-.52-.13h-.5V22.6h.33a2.36,2.36,0,0,0,.39,0c.22,0,.37-.09.37-.65A.7.7,0,0,0,65.56,21.58Zm1.13,3.7a1.8,1.8,0,0,1-1.4.42H63.78c-.31,0-.48-.11-.48-.43V20.83c0-.38.29-.4.48-.4h1a3,3,0,0,1,1.36.14,1.28,1.28,0,0,1,.66,1.27,1.33,1.33,0,0,1-.34,1,1.25,1.25,0,0,1,.6,1.26A1.69,1.69,0,0,1,66.69,25.28Z"/><path class="cls-1" d="M72,25.7H69.79c-.3,0-.48-.11-.48-.43V20.83c0-.38.3-.4.48-.4h.33c.34,0,.43.2.43.4v3.83l1.46,0c.4,0,.42.28.42.45v.2a.37.37,0,0,1-.42.41"/><path class="cls-1" d="M77.22,25.7H74.77c-.3,0-.48-.11-.48-.43V20.83c0-.38.3-.4.48-.4h2.45a.37.37,0,0,1,.42.4V21c0,.16,0,.45-.42.45-.63,0-1.22,0-1.69,0v1l1.51,0c.4,0,.43.28.43.45V23c0,.17,0,.45-.43.45l-1.51,0v1.23l1.69,0c.4,0,.42.28.42.45v.2a.37.37,0,0,1-.42.41"/><path class="cls-1" d="M83.07,25.14c-.31.56-1.09.63-1.72.63-.45,0-.9,0-1.17-.06s-.49-.15-.49-.36V25.1c0-.35.08-.46.4-.46s.32,0,.49,0,.38,0,.89,0,.54,0,.54-.4,0-.48-.21-.58l-1-.4c-.85-.36-1-.55-1-1.49,0-.75.17-1.3,1.09-1.42a7.78,7.78,0,0,1,.88,0c.37,0,.57,0,.91,0s.5.15.5.36V21c0,.35-.08.46-.4.46s-.56,0-.85,0h-.57c-.36,0-.34.17-.34.47s0,.27.22.37l.65.26c1.15.47,1.39.6,1.39,1.51a2.72,2.72,0,0,1-.16,1.1"/><path class="cls-1" d="M90.34,21.3c-.35,0-.42.06-.42.35a1.1,1.1,0,0,0,.36.71c.43-.2.61-.39.61-.76s-.14-.3-.55-.3M90,23.57c-.37.21-.44.27-.44.73s.13.54.86.54a1.06,1.06,0,0,0,.72-.16A15,15,0,0,1,90,23.57Zm3,1.85c-.1.12-.3.38-.47.38s-.51-.32-.63-.45a2.09,2.09,0,0,1-1.5.47c-.91,0-2-.11-2-1.46a1.51,1.51,0,0,1,.89-1.54,1.82,1.82,0,0,1-.54-1.24c0-.85.59-1.24,1.56-1.24S92,20.56,92,21.6c0,.7-.48,1-1.13,1.42.18.21.61.65.83.85a4.29,4.29,0,0,0,.12-.74.31.31,0,0,1,.35-.3h.26c.22,0,.33,0,.33.4a3.26,3.26,0,0,1-.31,1.3c.17.12.69.5.69.68A.34.34,0,0,1,93.06,25.42Z"/><path class="cls-1" d="M101.59,25.14c-.31.56-1.1.63-1.72.63-.46,0-.9,0-1.17-.06s-.49-.15-.49-.36V25.1c0-.35.08-.46.39-.46s.33,0,.49,0,.39,0,.9,0,.54,0,.54-.4,0-.48-.22-.58l-1-.4c-.85-.36-1-.55-1-1.49,0-.75.17-1.3,1.09-1.42a7.78,7.78,0,0,1,.88,0c.37,0,.57,0,.91,0s.5.15.5.36V21c0,.35-.08.46-.4.46s-.56,0-.85,0h-.58c-.36,0-.34.17-.34.47s0,.27.23.37l.65.26c1.15.47,1.39.6,1.39,1.51a2.72,2.72,0,0,1-.16,1.1"/><path class="cls-1" d="M106.51,23.65v1.62a.39.39,0,0,1-.43.43h-.34c-.3,0-.47-.11-.47-.43V23.72L103.7,21a.54.54,0,0,1-.09-.27c0-.27.26-.33.4-.33h.42a.47.47,0,0,1,.48.27l1,1.72,1-1.73a.45.45,0,0,1,.47-.26h.35c.4,0,.48.32.31.6l-1.54,2.62"/><path class="cls-1" d="M113.38,25.14c-.31.56-1.1.63-1.72.63-.46,0-.91,0-1.17-.06s-.49-.15-.49-.36V25.1c0-.35.08-.46.39-.46s.32,0,.49,0,.39,0,.9,0,.54,0,.54-.4,0-.48-.22-.58l-1-.4c-.85-.36-1-.55-1-1.49,0-.75.17-1.3,1.09-1.42a7.69,7.69,0,0,1,.88,0c.36,0,.57,0,.91,0s.49.15.49.36V21c0,.35-.08.46-.39.46s-.56,0-.85,0h-.58c-.36,0-.34.17-.34.47s0,.27.23.37l.65.26c1.15.47,1.39.6,1.39,1.51a2.72,2.72,0,0,1-.16,1.1"/><path class="cls-1" d="M119.19,21.49l-1.07,0v3.8a.39.39,0,0,1-.43.43h-.34c-.31,0-.47-.11-.47-.43v-3.8l-1.08,0c-.41,0-.43-.29-.43-.45v-.21c0-.32.21-.4.43-.4h3.39c.22,0,.43.08.43.4V21c0,.16,0,.45-.43.45"/><path class="cls-1" d="M124.5,25.7h-2.45c-.3,0-.47-.11-.47-.43V20.83c0-.38.29-.4.47-.4h2.45c.22,0,.43.08.43.4V21c0,.16,0,.45-.43.45-.62,0-1.22,0-1.68,0v1l1.5,0a.39.39,0,0,1,.44.45V23a.39.39,0,0,1-.44.45l-1.5,0v1.23l1.68,0c.41,0,.43.28.43.45v.2c0,.33-.21.41-.43.41"/><path class="cls-1" d="M132.12,25.7h-.33a.39.39,0,0,1-.43-.42l-.18-2.68c-.29.76-.58,1.65-.79,2.16a.49.49,0,0,1-.51.37h-.21a.49.49,0,0,1-.51-.37c-.2-.51-.51-1.4-.8-2.16l-.18,2.68a.39.39,0,0,1-.43.42h-.33c-.28,0-.51-.1-.47-.45l.4-4.43c0-.35.26-.39.47-.39h.44a.46.46,0,0,1,.49.29c.27.65.68,1.82,1,2.74.34-.92.75-2.09,1-2.74a.45.45,0,0,1,.48-.29h.44c.21,0,.44,0,.48.39l.4,4.43c0,.35-.2.45-.48.45"/><path class="cls-1" d="M138,25.14c-.31.56-1.1.63-1.72.63-.46,0-.91,0-1.18-.06s-.49-.15-.49-.36V25.1c0-.35.08-.46.4-.46s.32,0,.49,0,.38,0,.89,0,.55,0,.55-.4,0-.48-.22-.58l-1-.4c-.85-.36-1-.55-1-1.49,0-.75.16-1.3,1.09-1.42a7.69,7.69,0,0,1,.88,0c.36,0,.57,0,.9,0s.5.15.5.36V21c0,.35-.08.46-.39.46s-.56,0-.85,0h-.58c-.36,0-.34.17-.34.47s0,.27.22.37l.66.26c1.15.47,1.38.6,1.38,1.51a2.9,2.9,0,0,1-.15,1.1"/><path class="cls-2" d="M68.05,5.67v.72a3,3,0,0,1-3.13,3.26h-9A1.26,1.26,0,0,1,54.66,8.4V3.65A1.26,1.26,0,0,1,55.92,2.4h8.5c2.34,0,3.63,1.16,3.63,3.27M65.91.21H51.37V16.6h3.29V13.1a1.26,1.26,0,0,1,1.26-1.25h11.5c1.86,0,4.07-.83,4.07-4.81V5.43C71.49,2.79,71.06.21,65.91.21Z"/><path class="cls-2" d="M112.46.21l-6,7.27a1.24,1.24,0,0,1-1,.45,1.27,1.27,0,0,1-1-.45l-6-7.27H94.85l8.7,10.25a1.24,1.24,0,0,1,.31.81V16.6h3.29V11.27a1.28,1.28,0,0,1,.29-.81L116.16.21h-3.7"/><path class="cls-2" d="M137.58,8.61c-1.07-1.07-4-1.27-9-1.25-4.74,0-6.51,0-7.49-1a2.56,2.56,0,0,1-.68-2c0-.64.25-2.72,3.44-2.72h6.42c1.53,0,3.18.18,3.78,1.51l.2.45h3.43l-.1-.85c-.27-2.36-2.5-2.83-6-2.83H123.5c-5.82,0-6.37,1.32-6.37,4.8,0,1.94,0,2.9,1,3.53s3,.91,7.42.91a43.9,43.9,0,0,1,7.13.28A2.5,2.5,0,0,1,135,12.24c0,1.88-1.26,2.84-3.73,2.84h-7.1c-1,0-2.77,0-3.45-1.68l-.19-.48h-3.43l0,.79c.1,2.65,2,3.09,6.12,3.09h7c4.05,0,6-.26,7.05-.94s1.11-1.93,1.11-3.73-.26-2.94-.84-3.52"/><path class="cls-2" d="M162.38.21l-6.19,11.5h0a1.25,1.25,0,0,1-2.2,0L147.79.21h-6.9V16.6H144V4.28A1.25,1.25,0,0,1,145.28,3h.05a1.24,1.24,0,0,1,1.09.64l7.24,12.93h2.86l7.23-12.92a1.26,1.26,0,0,1,1.1-.65h.05a1.25,1.25,0,0,1,1.25,1.25V16.6h3.13V.21h-6.9"/><rect class="cls-2" x="172.41" y="0.21" width="3.29" height="16.39"/><path class="cls-2" d="M194.57,9.86a1.26,1.26,0,0,1-1.11,1.83H186a1.23,1.23,0,0,1-1.07-.61,1.28,1.28,0,0,1,0-1.23l3.76-7.1a1.18,1.18,0,0,1,2.12,0l3.76,7.1M192.74.21h-6l-9,16.39h3.58l1.44-2.69a1.26,1.26,0,0,1,1.11-.65h11.74a1.25,1.25,0,0,1,1.1.65l1.45,2.69h3.58Z"/><path class="cls-2" d="M190.81,2.77h0v0h0"/><path class="cls-2" d="M223.48.21V12.68a1.25,1.25,0,0,1-1.25,1.25h0a1.24,1.24,0,0,1-1-.47L210.74.21h-7.13V16.6h3.29V4.18a1.26,1.26,0,0,1,1.25-1.26h.06a1.26,1.26,0,0,1,1,.48s10.46,13.2,10.46,13.2h7.12V.21h-3.29"/><path class="cls-2" d="M91,5.64v.62c0,2.87-2.09,3.23-3.91,3.23H78.06a1.25,1.25,0,0,1-1.25-1.25V3.65A1.25,1.25,0,0,1,78.06,2.4h9.06c1.82,0,3.91.37,3.91,3.24m0,4.2a1.4,1.4,0,0,1,.47-.5,1.15,1.15,0,0,1,.36-.15c2-.45,2.27-1.21,2.27-3.42V4.57c0-2.76-.72-4.36-4.41-4.36H73.52V16.6h3.29V12.94a1.25,1.25,0,0,1,1.25-1.25h9.11c2.47,0,3.62,1.24,3.62,3.89v1h3.29v-2c0-2.19-.65-2.68-2.13-2.94a1.26,1.26,0,0,1-1-1.24v-.05A1.14,1.14,0,0,1,91.06,9.84Z"/><polyline class="cls-1" points="18.72 2.55 18.72 7.23 23.4 2.55 21.06 0.21 18.72 2.55 18.72 2.55"/><polyline class="cls-2" points="18.72 2.55 16.38 0.21 14.04 2.55 18.72 7.23 18.72 2.55"/><polyline class="cls-1" points="18.72 11.91 18.72 16.59 28.08 7.23 25.74 4.89 18.72 11.91"/><polyline class="cls-2" points="18.72 11.91 11.7 4.89 9.36 7.23 18.72 16.59 18.72 11.91"/><polyline class="cls-2" points="18.72 21.27 7.02 9.57 4.68 11.91 18.72 25.95 18.72 21.27"/><polyline class="cls-1" points="18.72 21.27 18.72 25.95 32.76 11.91 30.42 9.57 18.72 21.27"/><polyline class="cls-1" points="18.72 30.63 18.72 35.31 37.44 16.59 35.1 14.25 18.72 30.63"/><polyline class="cls-2" points="18.72 30.63 2.34 14.25 0 16.59 18.72 35.31 18.72 30.63"/><polyline class="cls-2" points="47.07 2.55 23.4 2.55 21.06 0.21 47.07 0.21 47.07 2.55"/><polyline class="cls-2" points="47.07 7.23 28.08 7.23 25.74 4.89 47.07 4.89 47.07 7.23"/><polyline class="cls-2" points="47.07 11.91 32.76 11.91 30.42 9.57 47.07 9.57 47.07 11.91"/><polyline class="cls-2" points="47.07 16.59 37.44 16.59 35.1 14.25 47.07 14.25 47.07 16.59"/></g></g></svg>