<svg xmlns="http://www.w3.org/2000/svg" viewBox="0 0 141.71 42.29"><defs><style>.cls-1{fill:#009839;}.cls-2{fill:#fff;}</style></defs><title>Recurso 1</title><g id="Capa_2" data-name="Capa 2"><g id="Layer_1" data-name="Layer 1"><polygon class="cls-1" points="69.84 26.96 64.29 26.96 64.29 30.91 69.63 30.91 69.63 32.61 64.29 32.61 64.29 36.66 69.99 36.66 69.99 38.36 62.45 38.36 62.45 25.27 69.84 25.27 69.84 26.96 69.84 26.96"/><polygon class="cls-1" points="74.07 25.27 75.77 25.27 75.77 38.36 74.07 38.36 74.07 25.27 74.07 25.27"/><path class="cls-1" d="M82.34,34.3H88.4c0-3.18-1.49-4.72-3.75-4.72s-4,1.75-4,4.36c0,2.36,1.49,4.57,4.16,4.57a6,6,0,0,0,3.44-1V35.84a5.49,5.49,0,0,1-3,1,2.67,2.67,0,0,1-2.87-2.57ZM84.7,31a2,2,0,0,1,2,2.15H82.39A2.2,2.2,0,0,1,84.7,31Z"/><path class="cls-1" d="M99.15,32a4,4,0,0,0-2.36-.87,2.63,2.63,0,0,0-2.62,2.93,2.67,2.67,0,0,0,2.88,2.87,6.1,6.1,0,0,0,2.31-.56V38a7.82,7.82,0,0,1-2.57.51,4.16,4.16,0,0,1-4.37-4.31c0-2.82,1.65-4.62,4.21-4.62a5.67,5.67,0,0,1,2.52.57V32Z"/><path class="cls-1" d="M106.8,29.74h2.72v1.53H106.8v4.42A1.19,1.19,0,0,0,108,37a3.89,3.89,0,0,0,2-.61V38a5.73,5.73,0,0,1-2.1.56,2.54,2.54,0,0,1-2.77-2.72V31.27h-1.49v-.2l3.18-3.13v1.8Z"/><path class="cls-1" d="M115.66,29.74v2h0c.87-1.54,1.69-2.16,2.51-2.16a3,3,0,0,1,2,1L119.3,32a2.65,2.65,0,0,0-1.59-.82c-1.18,0-2,1.18-2,2.62v4.52H114V29.74Z"/><polygon class="cls-1" points="125.05 29.73 126.74 29.73 126.74 38.36 125.05 38.36 125.05 29.73 125.05 29.73"/><path class="cls-1" d="M137.75,32a4,4,0,0,0-2.36-.87,2.63,2.63,0,0,0-2.62,2.93,2.67,2.67,0,0,0,2.88,2.87,6.06,6.06,0,0,0,2.31-.56V38a7.82,7.82,0,0,1-2.57.51A4.16,4.16,0,0,1,131,34.2c0-2.82,1.64-4.62,4.21-4.62a5.65,5.65,0,0,1,2.51.57V32Z"/><path class="cls-1" d="M16.13,6.05C12.89,4.61,11,4.1,9.07,4.1s-3.31.72-3.31,1.81c0,3.38,11.38,2.44,11.38,10.22,0,4.25-3.6,6.77-8.57,6.77A14.75,14.75,0,0,1,.51,20.74V15.91c3.16,2.16,5.11,2.88,7.63,2.88,2.16,0,3.31-.72,3.31-2.08C11.45,13.1,0,14.4,0,6.41,0,2.52,3.38,0,8.57,0a17.84,17.84,0,0,1,7.56,1.73V6.05Z"/><path class="cls-1" d="M32.12,21.89a16,16,0,0,1-5.12,1c-5.33,0-8.78-3.1-8.78-7.85s3.6-7.85,8.57-7.85a14.6,14.6,0,0,1,5.11,1v3.53A9.35,9.35,0,0,0,28,10.66c-2.88,0-4.68,1.72-4.68,4.39a4.25,4.25,0,0,0,4.54,4.46,11.68,11.68,0,0,0,4.25-1.08v3.46Z"/><path class="cls-1" d="M44.43,20V14c0-2.23-.94-3.31-2.45-3.31-1.08,0-2,.72-3.17,2.3v9.65H34.06V.29h4.75V9.72h.07A5.79,5.79,0,0,1,43.64,7.2c2.81,0,5.54,1.66,5.54,5.76v6.12a18.52,18.52,0,0,0-4.75.94Z"/><path class="cls-1" d="M51.41,18.79V7.49h4.76V9.65a6.18,6.18,0,0,1,5-2.45c2.37,0,5.47,1.37,5.47,5.76v9.65H61.85V13.39c0-2.16-1-3-2.37-3-1.15,0-2,.65-3.31,2.52v6.62a29,29,0,0,0-4.76-.72Z"/><path class="cls-1" d="M76.47,7.2a7.65,7.65,0,0,0-8,7.92c0,4.68,3.46,7.78,8.78,7.78a10.85,10.85,0,0,0,6.77-2V17.93c-2.23,1.58-3.74,2.16-5.61,2.16-3,0-4.83-1.59-5-4.25h10.8c.29-5.54-3.38-8.64-7.78-8.64Zm-3,6.12C73.74,11.23,75,10,76.83,10a3.24,3.24,0,0,1,3.24,3.31Z"/><polygon class="cls-1" points="86.12 7.49 90.87 7.49 90.87 22.61 86.12 22.61 86.12 7.49 86.12 7.49"/><path class="cls-1" d="M104.05.29V8.14a9,9,0,0,0-3.89-.94c-4.32,0-7.34,3.17-7.34,7.85s3,7.85,7.05,7.85a6.12,6.12,0,0,0,4.18-1.51v1.22h4.75V.29Zm0,18.21a3.92,3.92,0,0,1-2.81,1.23c-2.23,0-3.67-1.87-3.67-4.61,0-3,1.44-4.75,3.82-4.75a4.92,4.92,0,0,1,2.66.86V18.5Z"/><path class="cls-1" d="M118.81,7.2a7.65,7.65,0,0,0-8,7.92c0,4.68,3.46,7.78,8.79,7.78a10.94,10.94,0,0,0,6.76-2V17.93c-2.23,1.58-3.74,2.16-5.61,2.16-3,0-4.83-1.59-5-4.25h10.87c.21-5.54-3.39-8.64-7.78-8.64Zm-3,6.12c.22-2.09,1.37-3.31,3.24-3.31s3.1,1.3,3.31,3.31Z"/><path class="cls-1" d="M133.72,11.81h.07c1.37-3.17,3-4.61,4.82-4.61a5.09,5.09,0,0,1,3.1,1.37l-1.3,4.18a5.07,5.07,0,0,0-2.8-1.09c-1.73,0-2.88,1.66-3.89,4.4v6.55H129V7.49h4.76v4.32Z"/><path class="cls-1" d="M91.09,1.08a3.32,3.32,0,0,1-1.8,3.67c-1.44.87-3,.58-3.39-.57S86.27,1.37,87.71.5s3-.57,3.38.58Z"/><path class="cls-1" d="M126.84,26.65a1.2,1.2,0,0,1-.66,1.29c-.52.31-1,.2-1.18-.21a1.15,1.15,0,0,1,.61-1.28c.52-.31,1-.21,1.23.2Z"/><path class="cls-1" d="M40.1,25.59c4.95-5.15,12-6.76,15.69-3.59s2.67,9.94-2.28,15.08-12,6.76-15.69,3.59-2.67-9.94,2.28-15.08Z"/><path class="cls-1" d="M43.62,37.86h-5l.79-3,2.77,0a1.17,1.17,0,0,0,1.11-.74l1.22-5.37c.5-2.22,3.27-4,5.54-4H55l-.66,2.75-2.57,0c-.58,0-.78.14-.9.6L49.32,34c-.59,2.22-3.4,3.88-5.7,3.88Z"/><path class="cls-2" d="M37.3,29.47a16.07,16.07,0,0,1,1.22-1.94h2.86l-.63,1.94Z"/><path class="cls-2" d="M35.91,33.16a13.35,13.35,0,0,1,.58-1.94h4l-.64,1.94Z"/><path class="cls-2" d="M56.61,32.85a16.49,16.49,0,0,1-1.17,1.95H51.62l.63-1.95Z"/><path class="cls-2" d="M57.89,29.16a12.33,12.33,0,0,1-.53,1.95H52.53l.63-1.95Z"/><path class="cls-2" d="M43.62,37.86h-5l.79-3,2.77,0a1.17,1.17,0,0,0,1.11-.74l1.22-5.37c.5-2.22,3.27-4,5.54-4H55l-.66,2.75-2.57,0c-.58,0-.78.14-.9.6L49.32,34c-.59,2.22-3.4,3.88-5.7,3.88Z"/></g></g></svg>